# xmcd
#
# Track frame offsets: 
#        182
#        15972
#        28085
#        42660
#        60027
#        79162
#        92267
#        108415
#        123590
#        140285
#
# Disc length: 2110 seconds
#
# Revision: 2
# Processed by: cddbd v1.5.1PL0 Copyright (c) Steve Scherf et al.
# Submitted via: ExactAudioCopy v0.95a5
#
DISCID=71083c0a
DTITLE=The Judds - Greatest Hits 
DYEAR=1988
DGENRE=Country
TTITLE0=Why Not Me
TTITLE1=Rocking With The Rhythm Of the Rain
TTITLE2=Mama He's Crazy
TTITLE3=Give A Little Love
TTITLE4=Grandpa (Tell Me 'Bout The Good Old Days)
TTITLE5=Girls Night Out
TTITLE6=Chance Of Heart
TTITLE7=Have Mercy
TTITLE8=Cry Myself To Sleep
TTITLE9=Love Is Alive
EXTD=ID3G: 2
EXTT0=
EXTT1=
EXTT2=
EXTT3=
EXTT4=
EXTT5=
EXTT6=
EXTT7=
EXTT8=
EXTT9=
PLAYORDER=
